<svg xmlns="http://www.w3.org/2000/svg" width="760" height="460" viewBox="0 0 760 460">
<rect width="100%" height="100%" fill="#ffffff"/>
<text x="380.0" y="28" text-anchor="middle" font-family="Arial" font-size="18" font-weight="700">Baseline Reward Curve</text>
<line x1="58" y1="402" x2="702" y2="402" stroke="#222"/>
<line x1="58" y1="58" x2="58" y2="402" stroke="#222"/>
<text x="380.0" y="448" text-anchor="middle" font-family="Arial" font-size="13">Episode</text>
<text transform="translate(16 230.0) rotate(-90)" text-anchor="middle" font-family="Arial" font-size="13">Mean reward</text>
<polyline points="58.00,378.28 60.15,369.88 62.31,354.84 64.46,345.61 66.62,344.89 68.77,344.08 70.92,340.44 73.08,334.30 75.23,331.46 77.38,328.33 79.54,326.76 81.69,323.23 83.85,320.58 86.00,317.14 88.15,313.38 90.31,310.08 92.46,306.67 94.62,304.37 96.77,302.76 98.92,302.21 101.08,296.76 103.23,292.33 105.38,289.25 107.54,287.19 109.69,283.60 111.85,280.56 114.00,278.14 116.15,276.00 118.31,272.68 120.46,270.07 122.62,265.35 124.77,262.60 126.92,259.35 129.08,258.16 131.23,256.49 133.38,254.96 135.54,253.60 137.69,252.13 139.85,250.65 142.00,247.08 144.15,245.59 146.31,243.50 148.46,241.21 150.62,238.86 152.77,235.50 154.92,232.25 157.08,228.75 159.23,226.41 161.38,224.50 163.54,222.36 165.69,222.36 167.85,221.53 170.00,219.96 172.15,216.54 174.31,215.23 176.46,214.59 178.62,213.82 180.77,212.79 182.92,209.81 185.08,208.92 187.23,206.60 189.38,205.99 191.54,204.34 193.69,201.96 195.85,200.39 198.00,198.57 200.15,197.88 202.31,197.18 204.46,196.07 206.62,195.31 208.77,194.26 210.92,191.81 213.08,190.67 215.23,190.26 217.38,188.48 219.54,185.55 221.69,183.03 223.85,179.83 226.00,178.46 228.15,176.30 230.31,175.65 232.46,172.98 234.62,172.29 236.77,170.65 238.92,170.54 241.08,169.85 243.23,168.38 245.38,167.62 247.54,165.83 249.69,163.88 251.85,161.37 254.00,160.09 256.15,159.24 258.31,158.48 260.46,157.61 262.62,157.37 264.77,156.66 266.92,157.24 269.08,156.29 271.23,154.69 273.38,153.00 275.54,151.62 277.69,151.00 279.85,150.94 282.00,148.94 284.15,147.13 286.31,145.00 288.46,142.36 290.62,141.29 292.77,139.95 294.92,139.85 297.08,138.63 299.23,136.94 301.38,134.46 303.54,132.48 305.69,130.30 307.85,128.93 310.00,126.89 312.15,125.81 314.31,125.15 316.46,123.77 318.62,122.20 320.77,119.56 322.92,117.36 325.08,117.89 327.23,116.85 329.38,116.63 331.54,116.38 333.69,116.16 335.85,116.28 338.00,116.45 340.15,117.63 342.31,117.89 344.46,118.76 346.62,118.91 348.77,119.01 350.92,120.18 353.08,118.80 355.23,117.86 357.38,116.90 359.54,115.65 361.69,114.73 363.85,113.96 366.00,113.16 368.15,111.51 370.31,110.84 372.46,109.98 374.62,109.33 376.77,108.22 378.92,106.69 381.08,104.11 383.23,102.14 385.38,100.62 387.54,99.26 389.69,98.47 391.85,97.09 394.00,94.32 396.15,93.91 398.31,93.80 400.46,93.79 402.62,93.42 404.77,94.26 406.92,94.95 409.08,94.85 411.23,94.23 413.38,93.69 415.54,93.83 417.69,93.24 419.85,92.83 422.00,92.41 424.15,92.44 426.31,92.24 428.46,92.75 430.62,92.02 432.77,91.56 434.92,91.77 437.08,91.98 439.23,92.05 441.38,91.99 443.54,91.92 445.69,91.96 447.85,91.47 450.00,90.60 452.15,90.76 454.31,90.87 456.46,91.24 458.62,90.84 460.77,90.49 462.92,90.23 465.08,90.26 467.23,89.51 469.38,88.97 471.54,88.55 473.69,88.65 475.85,88.60 478.00,88.28 480.15,88.50 482.31,88.77 484.46,88.22 486.62,87.78 488.77,87.69 490.92,87.37 493.08,87.64 495.23,87.52 497.38,86.88 499.54,86.71 501.69,86.63 503.85,86.58 506.00,86.88 508.15,86.99 510.31,86.98 512.46,86.83 514.62,86.19 516.77,86.34 518.92,86.40 521.08,86.53 523.23,85.90 525.38,85.59 527.54,85.74 529.69,86.12 531.85,86.07 534.00,85.85 536.15,85.77 538.31,85.98 540.46,85.88 542.62,85.59 544.77,85.37 546.92,85.67 549.08,85.11 551.23,84.68 553.38,84.83 555.54,85.00 557.69,84.96 559.85,84.64 562.00,84.46 564.15,84.18 566.31,84.25 568.46,84.34 570.62,84.24 572.77,83.92 574.92,83.79 577.08,83.77 579.23,83.30 581.38,82.79 583.54,82.86 585.69,82.96 587.85,82.90 590.00,82.94 592.15,83.06 594.31,83.03 596.46,82.87 598.62,82.68 600.77,82.82 602.92,82.79 605.08,82.87 607.23,83.06 609.38,83.10 611.54,82.69 613.69,82.58 615.85,82.34 618.00,82.34 620.15,82.14 622.31,82.15 624.46,82.07 626.62,81.91 628.77,82.37 630.92,82.36 633.08,82.01 635.23,82.05 637.38,82.28 639.54,82.59 641.69,82.64 643.85,82.53 646.00,82.72 648.15,82.73 650.31,82.68 652.46,82.51 654.62,82.56 656.77,82.66 658.92,82.71 661.08,82.99 663.23,83.07 665.38,83.06 667.54,83.34 669.69,83.37 671.85,82.85 674.00,83.00 676.15,83.05 678.31,83.03 680.46,83.02 682.62,82.77 684.77,82.72 686.92,82.60 689.08,82.33 691.23,82.17 693.38,82.04 695.54,82.03 697.69,81.97 699.85,81.85 702.00,81.72" fill="none" stroke="#245c9c" stroke-width="2.4"/>
<text x="572" y="55" font-family="Arial" font-size="12" fill="#245c9c">no cues</text>
</svg>