<svg xmlns="http://www.w3.org/2000/svg" width="720" height="440" viewBox="0 0 720 440">
<rect width="100%" height="100%" fill="#ffffff"/>
<text x="360.0" y="28" text-anchor="middle" font-family="Arial" font-size="18" font-weight="700">CDS vs Uncertainty</text>
<line x1="64" y1="376" x2="656" y2="376" stroke="#222"/>
<line x1="64" y1="64" x2="64" y2="376" stroke="#222"/>
<text x="360.0" y="428" text-anchor="middle" font-family="Arial" font-size="13">Uncertainty level</text>
<text transform="translate(18 220.0) rotate(-90)" text-anchor="middle" font-family="Arial" font-size="13">CDS +/- 95% CI</text>
<polyline points="64.00,339.84 212.00,337.83 360.00,334.74 508.00,340.16 656.00,321.47" fill="none" stroke="#245c9c" stroke-width="2.4"/>
<line x1="64.00" y1="347.84" x2="64.00" y2="331.83" stroke="#333" stroke-width="1.5"/>
<line x1="58.00" y1="347.84" x2="70.00" y2="347.84" stroke="#333" stroke-width="1.5"/>
<line x1="58.00" y1="331.83" x2="70.00" y2="331.83" stroke="#333" stroke-width="1.5"/>
<circle cx="64.00" cy="339.84" r="4.5" fill="#245c9c"/>
<text x="64.00" y="398" text-anchor="middle" font-family="Arial" font-size="11">very_low</text>
<text x="64.00" y="329.84" text-anchor="middle" font-family="Arial" font-size="11">0.039</text>
<line x1="212.00" y1="345.83" x2="212.00" y2="329.83" stroke="#333" stroke-width="1.5"/>
<line x1="206.00" y1="345.83" x2="218.00" y2="345.83" stroke="#333" stroke-width="1.5"/>
<line x1="206.00" y1="329.83" x2="218.00" y2="329.83" stroke="#333" stroke-width="1.5"/>
<circle cx="212.00" cy="337.83" r="4.5" fill="#245c9c"/>
<text x="212.00" y="398" text-anchor="middle" font-family="Arial" font-size="11">low</text>
<text x="212.00" y="327.83" text-anchor="middle" font-family="Arial" font-size="11">0.047</text>
<line x1="360.00" y1="344.50" x2="360.00" y2="324.97" stroke="#333" stroke-width="1.5"/>
<line x1="354.00" y1="344.50" x2="366.00" y2="344.50" stroke="#333" stroke-width="1.5"/>
<line x1="354.00" y1="324.97" x2="366.00" y2="324.97" stroke="#333" stroke-width="1.5"/>
<circle cx="360.00" cy="334.74" r="4.5" fill="#245c9c"/>
<text x="360.00" y="398" text-anchor="middle" font-family="Arial" font-size="11">medium</text>
<text x="360.00" y="324.74" text-anchor="middle" font-family="Arial" font-size="11">0.059</text>
<line x1="508.00" y1="347.77" x2="508.00" y2="332.56" stroke="#333" stroke-width="1.5"/>
<line x1="502.00" y1="347.77" x2="514.00" y2="347.77" stroke="#333" stroke-width="1.5"/>
<line x1="502.00" y1="332.56" x2="514.00" y2="332.56" stroke="#333" stroke-width="1.5"/>
<circle cx="508.00" cy="340.16" r="4.5" fill="#245c9c"/>
<text x="508.00" y="398" text-anchor="middle" font-family="Arial" font-size="11">high</text>
<text x="508.00" y="330.16" text-anchor="middle" font-family="Arial" font-size="11">0.038</text>
<line x1="656.00" y1="342.00" x2="656.00" y2="300.95" stroke="#333" stroke-width="1.5"/>
<line x1="650.00" y1="342.00" x2="662.00" y2="342.00" stroke="#333" stroke-width="1.5"/>
<line x1="650.00" y1="300.95" x2="662.00" y2="300.95" stroke="#333" stroke-width="1.5"/>
<circle cx="656.00" cy="321.47" r="4.5" fill="#245c9c"/>
<text x="656.00" y="398" text-anchor="middle" font-family="Arial" font-size="11">very_high</text>
<text x="656.00" y="311.47" text-anchor="middle" font-family="Arial" font-size="11">0.110</text>
</svg>