<svg xmlns="http://www.w3.org/2000/svg" width="720" height="450" viewBox="0 0 720 450">
<rect width="100%" height="100%" fill="#ffffff"/>
<text x="360.0" y="30" text-anchor="middle" font-family="Arial" font-size="18" font-weight="700">CDS Factorial Plot</text>
<line x1="68" y1="382" x2="652" y2="382" stroke="#222"/>
<line x1="68" y1="68" x2="68" y2="382" stroke="#222"/>
<text x="360.0" y="436" text-anchor="middle" font-family="Arial" font-size="13">Reward delay</text>
<text transform="translate(18 225.0) rotate(-90)" text-anchor="middle" font-family="Arial" font-size="13">CDS +/- 95% CI</text>
<text x="214.0" y="406" text-anchor="middle" font-family="Arial" font-size="12">low</text>
<text x="506.0" y="406" text-anchor="middle" font-family="Arial" font-size="12">high</text>
<polyline points="214.00,345.61 506.00,327.90" fill="none" stroke="#245c9c" stroke-width="2.4"/>
<line x1="214.00" y1="353.66" x2="214.00" y2="337.55" stroke="#333" stroke-width="1.4"/>
<circle cx="214.00" cy="345.61" r="5" fill="#245c9c"/>
<line x1="506.00" y1="351.16" x2="506.00" y2="304.64" stroke="#333" stroke-width="1.4"/>
<circle cx="506.00" cy="327.90" r="5" fill="#245c9c"/>
<text x="507" y="58" font-family="Arial" font-size="12" fill="#245c9c">low sparsity</text>
<polyline points="214.00,337.65 506.00,324.82" fill="none" stroke="#d66b2a" stroke-width="2.4"/>
<line x1="214.00" y1="347.87" x2="214.00" y2="327.43" stroke="#333" stroke-width="1.4"/>
<circle cx="214.00" cy="337.65" r="5" fill="#d66b2a"/>
<line x1="506.00" y1="343.72" x2="506.00" y2="305.91" stroke="#333" stroke-width="1.4"/>
<circle cx="506.00" cy="324.82" r="5" fill="#d66b2a"/>
<text x="507" y="78" font-family="Arial" font-size="12" fill="#d66b2a">high sparsity</text>
</svg>