<svg xmlns="http://www.w3.org/2000/svg" width="760" height="460" viewBox="0 0 760 460">
<rect width="100%" height="100%" fill="#ffffff"/>
<text x="380.0" y="28" text-anchor="middle" font-family="Arial" font-size="18" font-weight="700">Cue Baseline Reward Curve</text>
<line x1="58" y1="402" x2="702" y2="402" stroke="#222"/>
<line x1="58" y1="58" x2="58" y2="402" stroke="#222"/>
<text x="380.0" y="448" text-anchor="middle" font-family="Arial" font-size="13">Episode</text>
<text transform="translate(16 230.0) rotate(-90)" text-anchor="middle" font-family="Arial" font-size="13">Mean reward</text>
<polyline points="58.00,378.28 60.15,369.91 62.31,354.91 64.46,345.70 66.62,344.98 68.77,344.18 70.92,340.55 73.08,334.43 75.23,331.59 77.38,328.47 79.54,326.90 81.69,323.38 83.85,320.74 86.00,317.31 88.15,313.56 90.31,310.27 92.46,306.87 94.62,304.58 96.77,302.97 98.92,302.43 101.08,296.99 103.23,292.57 105.38,289.50 107.54,287.45 109.69,283.87 111.85,280.83 114.00,278.42 116.15,276.28 118.31,272.98 120.46,270.37 122.62,265.66 124.77,262.93 126.92,259.68 129.08,258.49 131.23,256.83 133.38,255.30 135.54,253.95 137.69,252.49 139.85,251.01 142.00,247.45 144.15,245.96 146.31,243.88 148.46,241.59 150.62,239.25 152.77,235.90 154.92,232.66 157.08,229.17 159.23,226.83 161.38,224.93 163.54,222.79 165.69,222.79 167.85,221.97 170.00,220.40 172.15,216.99 174.31,215.69 176.46,215.04 178.62,214.28 180.77,213.25 182.92,210.28 185.08,209.40 187.23,207.08 189.38,206.47 191.54,204.83 193.69,202.45 195.85,200.89 198.00,199.07 200.15,198.39 202.31,197.69 204.46,196.58 206.62,195.82 208.77,194.78 210.92,192.33 213.08,191.20 215.23,190.79 217.38,189.01 219.54,186.09 221.69,183.58 223.85,180.39 226.00,179.02 228.15,176.86 230.31,176.21 232.46,173.55 234.62,172.87 236.77,171.23 238.92,171.12 241.08,170.44 243.23,168.97 245.38,168.21 247.54,166.42 249.69,164.48 251.85,161.98 254.00,160.70 256.15,159.85 258.31,159.10 260.46,158.22 262.62,157.99 264.77,157.28 266.92,157.86 269.08,156.91 271.23,155.32 273.38,153.63 275.54,152.25 277.69,151.63 279.85,151.58 282.00,149.59 284.15,147.78 286.31,145.66 288.46,143.02 290.62,141.95 292.77,140.61 294.92,140.52 297.08,139.30 299.23,137.62 301.38,135.14 303.54,133.17 305.69,130.99 307.85,129.63 310.00,127.59 312.15,126.52 314.31,125.86 316.46,124.48 318.62,122.92 320.77,120.29 322.92,118.09 325.08,118.62 327.23,117.58 329.38,117.36 331.54,117.11 333.69,116.89 335.85,117.01 338.00,117.18 340.15,118.36 342.31,118.62 344.46,119.49 346.62,119.63 348.77,119.73 350.92,120.91 353.08,119.53 355.23,118.59 357.38,117.63 359.54,116.38 361.69,115.47 363.85,114.70 366.00,113.90 368.15,112.25 370.31,111.59 372.46,110.73 374.62,110.08 376.77,108.97 378.92,107.45 381.08,104.87 383.23,102.91 385.38,101.40 387.54,100.04 389.69,99.25 391.85,97.88 394.00,95.12 396.15,94.71 398.31,94.59 400.46,94.59 402.62,94.22 404.77,95.05 406.92,95.74 409.08,95.64 411.23,95.03 413.38,94.48 415.54,94.62 417.69,94.03 419.85,93.63 422.00,93.21 424.15,93.24 426.31,93.04 428.46,93.55 430.62,92.82 432.77,92.36 434.92,92.57 437.08,92.78 439.23,92.85 441.38,92.79 443.54,92.72 445.69,92.76 447.85,92.27 450.00,91.40 452.15,91.56 454.31,91.67 456.46,92.05 458.62,91.64 460.77,91.30 462.92,91.04 465.08,91.07 467.23,90.31 469.38,89.78 471.54,89.36 473.69,89.46 475.85,89.41 478.00,89.09 480.15,89.31 482.31,89.58 484.46,89.03 486.62,88.59 488.77,88.51 490.92,88.18 493.08,88.45 495.23,88.33 497.38,87.70 499.54,87.52 501.69,87.45 503.85,87.39 506.00,87.69 508.15,87.81 510.31,87.79 512.46,87.65 514.62,87.00 516.77,87.16 518.92,87.21 521.08,87.34 523.23,86.72 525.38,86.41 527.54,86.55 529.69,86.93 531.85,86.89 534.00,86.67 536.15,86.58 538.31,86.79 540.46,86.70 542.62,86.41 544.77,86.19 546.92,86.48 549.08,85.93 551.23,85.50 553.38,85.65 555.54,85.82 557.69,85.78 559.85,85.46 562.00,85.28 564.15,85.01 566.31,85.07 568.46,85.16 570.62,85.07 572.77,84.75 574.92,84.62 577.08,84.60 579.23,84.12 581.38,83.62 583.54,83.68 585.69,83.78 587.85,83.72 590.00,83.76 592.15,83.89 594.31,83.85 596.46,83.70 598.62,83.50 600.77,83.65 602.92,83.62 605.08,83.70 607.23,83.89 609.38,83.92 611.54,83.51 613.69,83.41 615.85,83.16 618.00,83.17 620.15,82.97 622.31,82.97 624.46,82.90 626.62,82.73 628.77,83.20 630.92,83.18 633.08,82.84 635.23,82.88 637.38,83.11 639.54,83.41 641.69,83.47 643.85,83.35 646.00,83.54 648.15,83.56 650.31,83.51 652.46,83.34 654.62,83.39 656.77,83.49 658.92,83.54 661.08,83.82 663.23,83.90 665.38,83.89 667.54,84.16 669.69,84.20 671.85,83.68 674.00,83.82 676.15,83.87 678.31,83.86 680.46,83.85 682.62,83.60 684.77,83.55 686.92,83.43 689.08,83.16 691.23,83.00 693.38,82.87 695.54,82.85 697.69,82.80 699.85,82.67 702.00,82.55" fill="none" stroke="#245c9c" stroke-width="2.4"/>
<text x="572" y="55" font-family="Arial" font-size="12" fill="#245c9c">no cues</text>
<polyline points="58.00,370.27 60.15,368.75 62.31,368.53 64.46,366.21 66.62,371.04 68.77,368.19 70.92,366.68 73.08,363.86 75.23,361.91 77.38,361.18 79.54,359.81 81.69,358.10 83.85,355.12 86.00,351.02 88.15,348.82 90.31,346.56 92.46,344.71 94.62,342.05 96.77,339.18 98.92,336.38 101.08,332.28 103.23,328.62 105.38,324.48 107.54,319.48 109.69,314.11 111.85,310.02 114.00,305.31 116.15,300.32 118.31,296.20 120.46,291.43 122.62,287.19 124.77,282.27 126.92,277.00 129.08,274.32 131.23,270.50 133.38,266.92 135.54,262.35 137.69,258.27 139.85,255.41 142.00,253.21 144.15,251.97 146.31,248.64 148.46,246.38 150.62,244.90 152.77,241.39 154.92,238.92 157.08,236.25 159.23,233.24 161.38,230.42 163.54,228.18 165.69,225.92 167.85,225.10 170.00,225.17 172.15,223.88 174.31,220.89 176.46,218.24 178.62,217.40 180.77,217.96 182.92,216.13 185.08,215.50 187.23,213.31 189.38,213.11 191.54,211.26 193.69,209.30 195.85,208.33 198.00,207.49 200.15,206.14 202.31,206.00 204.46,204.70 206.62,202.88 208.77,201.38 210.92,199.53 213.08,199.11 215.23,196.74 217.38,196.34 219.54,195.43 221.69,193.80 223.85,190.00 226.00,188.95 228.15,186.50 230.31,184.18 232.46,181.67 234.62,179.64 236.77,177.47 238.92,176.33 241.08,173.67 243.23,173.03 245.38,173.09 247.54,172.07 249.69,171.73 251.85,170.05 254.00,167.36 256.15,164.45 258.31,162.71 260.46,161.88 262.62,159.89 264.77,157.42 266.92,157.33 269.08,153.96 271.23,150.88 273.38,148.33 275.54,145.54 277.69,144.80 279.85,144.09 282.00,141.46 284.15,140.35 286.31,138.36 288.46,136.38 290.62,134.83 292.77,132.65 294.92,131.62 297.08,130.68 299.23,129.16 301.38,129.22 303.54,126.89 305.69,126.16 307.85,125.37 310.00,124.51 312.15,124.56 314.31,125.03 316.46,125.01 318.62,125.41 320.77,124.23 322.92,122.47 325.08,122.35 327.23,121.21 329.38,120.70 331.54,119.02 333.69,117.32 335.85,115.56 338.00,113.80 340.15,112.88 342.31,111.59 344.46,110.46 346.62,109.88 348.77,109.38 350.92,109.26 353.08,107.94 355.23,107.83 357.38,106.87 359.54,105.69 361.69,104.30 363.85,103.21 366.00,102.90 368.15,102.05 370.31,100.97 372.46,99.22 374.62,98.58 376.77,98.73 378.92,98.92 381.08,98.97 383.23,99.36 385.38,99.12 387.54,98.06 389.69,97.58 391.85,96.60 394.00,95.51 396.15,95.69 398.31,95.43 400.46,94.57 402.62,95.43 404.77,95.70 406.92,95.30 409.08,95.56 411.23,95.04 413.38,95.78 415.54,95.94 417.69,96.20 419.85,95.43 422.00,95.39 424.15,94.86 426.31,94.66 428.46,94.79 430.62,94.78 432.77,95.30 434.92,95.44 437.08,95.93 439.23,94.76 441.38,94.25 443.54,94.30 445.69,92.77 447.85,92.45 450.00,92.28 452.15,92.35 454.31,92.33 456.46,91.81 458.62,91.83 460.77,91.11 462.92,91.37 465.08,90.93 467.23,91.22 469.38,90.57 471.54,90.65 473.69,90.74 475.85,90.31 478.00,90.01 480.15,89.60 482.31,89.75 484.46,89.59 486.62,89.72 488.77,90.10 490.92,89.50 493.08,89.13 495.23,88.59 497.38,88.28 499.54,87.89 501.69,87.80 503.85,87.71 506.00,87.42 508.15,87.42 510.31,86.97 512.46,86.91 514.62,86.54 516.77,86.05 518.92,85.67 521.08,86.03 523.23,85.95 525.38,85.97 527.54,86.22 529.69,85.87 531.85,85.42 534.00,85.37 536.15,85.68 538.31,85.49 540.46,86.13 542.62,86.35 544.77,86.08 546.92,85.99 549.08,85.94 551.23,85.77 553.38,85.95 555.54,85.88 557.69,86.11 559.85,86.16 562.00,86.19 564.15,86.03 566.31,86.04 568.46,85.77 570.62,85.33 572.77,85.28 574.92,85.14 577.08,85.16 579.23,84.77 581.38,84.82 583.54,84.25 585.69,84.02 587.85,83.94 590.00,83.88 592.15,83.89 594.31,83.86 596.46,83.69 598.62,83.55 600.77,83.19 602.92,83.26 605.08,83.24 607.23,83.23 609.38,83.04 611.54,82.99 613.69,83.16 615.85,83.05 618.00,83.04 620.15,82.91 622.31,83.08 624.46,83.01 626.62,83.37 628.77,83.46 630.92,83.64 633.08,83.63 635.23,83.57 637.38,83.44 639.54,83.42 641.69,83.60 643.85,83.81 646.00,83.50 648.15,83.34 650.31,83.08 652.46,83.28 654.62,83.44 656.77,83.22 658.92,83.15 661.08,83.15 663.23,83.16 665.38,82.91 667.54,83.03 669.69,82.54 671.85,82.44 674.00,82.42 676.15,82.42 678.31,82.39 680.46,82.42 682.62,82.41 684.77,82.15 686.92,81.96 689.08,81.91 691.23,81.99 693.38,81.99 695.54,81.89 697.69,81.72 699.85,81.87 702.00,81.86" fill="none" stroke="#d66b2a" stroke-width="2.4"/>
<text x="572" y="73" font-family="Arial" font-size="12" fill="#d66b2a">5 cues</text>
</svg>