<svg xmlns="http://www.w3.org/2000/svg" width="720" height="440" viewBox="0 0 720 440">
<rect width="100%" height="100%" fill="#ffffff"/>
<text x="360.0" y="28" text-anchor="middle" font-family="Arial" font-size="18" font-weight="700">Goal Rate vs Uncertainty</text>
<line x1="64" y1="376" x2="656" y2="376" stroke="#222"/>
<line x1="64" y1="64" x2="64" y2="376" stroke="#222"/>
<text x="360.0" y="428" text-anchor="middle" font-family="Arial" font-size="13">Uncertainty level</text>
<text transform="translate(18 220.0) rotate(-90)" text-anchor="middle" font-family="Arial" font-size="13">Goal rate +/- 95% CI</text>
<polyline points="64.00,90.30 212.00,93.19 360.00,122.62 508.00,184.95 656.00,225.92" fill="none" stroke="#245c9c" stroke-width="2.4"/>
<line x1="64.00" y1="90.30" x2="64.00" y2="90.30" stroke="#333" stroke-width="1.5"/>
<line x1="58.00" y1="90.30" x2="70.00" y2="90.30" stroke="#333" stroke-width="1.5"/>
<line x1="58.00" y1="90.30" x2="70.00" y2="90.30" stroke="#333" stroke-width="1.5"/>
<circle cx="64.00" cy="90.30" r="4.5" fill="#245c9c"/>
<text x="64.00" y="398" text-anchor="middle" font-family="Arial" font-size="11">very_low</text>
<text x="64.00" y="80.30" text-anchor="middle" font-family="Arial" font-size="11">1.000</text>
<line x1="212.00" y1="96.37" x2="212.00" y2="90.00" stroke="#333" stroke-width="1.5"/>
<line x1="206.00" y1="96.37" x2="218.00" y2="96.37" stroke="#333" stroke-width="1.5"/>
<line x1="206.00" y1="90.00" x2="218.00" y2="90.00" stroke="#333" stroke-width="1.5"/>
<circle cx="212.00" cy="93.19" r="4.5" fill="#245c9c"/>
<text x="212.00" y="398" text-anchor="middle" font-family="Arial" font-size="11">low</text>
<text x="212.00" y="83.19" text-anchor="middle" font-family="Arial" font-size="11">0.989</text>
<line x1="360.00" y1="150.11" x2="360.00" y2="95.13" stroke="#333" stroke-width="1.5"/>
<line x1="354.00" y1="150.11" x2="366.00" y2="150.11" stroke="#333" stroke-width="1.5"/>
<line x1="354.00" y1="95.13" x2="366.00" y2="95.13" stroke="#333" stroke-width="1.5"/>
<circle cx="360.00" cy="122.62" r="4.5" fill="#245c9c"/>
<text x="360.00" y="398" text-anchor="middle" font-family="Arial" font-size="11">medium</text>
<text x="360.00" y="112.62" text-anchor="middle" font-family="Arial" font-size="11">0.876</text>
<line x1="508.00" y1="225.22" x2="508.00" y2="144.67" stroke="#333" stroke-width="1.5"/>
<line x1="502.00" y1="225.22" x2="514.00" y2="225.22" stroke="#333" stroke-width="1.5"/>
<line x1="502.00" y1="144.67" x2="514.00" y2="144.67" stroke="#333" stroke-width="1.5"/>
<circle cx="508.00" cy="184.95" r="4.5" fill="#245c9c"/>
<text x="508.00" y="398" text-anchor="middle" font-family="Arial" font-size="11">high</text>
<text x="508.00" y="174.95" text-anchor="middle" font-family="Arial" font-size="11">0.636</text>
<line x1="656.00" y1="266.27" x2="656.00" y2="185.57" stroke="#333" stroke-width="1.5"/>
<line x1="650.00" y1="266.27" x2="662.00" y2="266.27" stroke="#333" stroke-width="1.5"/>
<line x1="650.00" y1="185.57" x2="662.00" y2="185.57" stroke="#333" stroke-width="1.5"/>
<circle cx="656.00" cy="225.92" r="4.5" fill="#245c9c"/>
<text x="656.00" y="398" text-anchor="middle" font-family="Arial" font-size="11">very_high</text>
<text x="656.00" y="215.92" text-anchor="middle" font-family="Arial" font-size="11">0.478</text>
</svg>