<svg xmlns="http://www.w3.org/2000/svg" width="460" height="500" viewBox="0 0 460 500">
<rect width="100%" height="100%" fill="#ffffff"/>
<text x="230.0" y="28" text-anchor="middle" font-family="Arial" font-size="17" font-weight="700">Low After Intervention</text>
<rect x="42.00" y="66.00" width="37.60" height="37.60" fill="rgb(245,248,250)" stroke="#dddddd" stroke-width="0.5"/>
<rect x="79.60" y="66.00" width="37.60" height="37.60" fill="rgb(239,244,248)" stroke="#dddddd" stroke-width="0.5"/>
<rect x="117.20" y="66.00" width="37.60" height="37.60" fill="rgb(245,248,250)" stroke="#dddddd" stroke-width="0.5"/>
<rect x="154.80" y="66.00" width="37.60" height="37.60" fill="rgb(245,248,250)" stroke="#dddddd" stroke-width="0.5"/>
<rect x="192.40" y="66.00" width="37.60" height="37.60" fill="rgb(245,248,250)" stroke="#dddddd" stroke-width="0.5"/>
<rect x="230.00" y="66.00" width="37.60" height="37.60" fill="rgb(245,248,250)" stroke="#dddddd" stroke-width="0.5"/>
<rect x="267.60" y="66.00" width="37.60" height="37.60" fill="rgb(245,248,250)" stroke="#dddddd" stroke-width="0.5"/>
<rect x="305.20" y="66.00" width="37.60" height="37.60" fill="rgb(245,248,250)" stroke="#dddddd" stroke-width="0.5"/>
<rect x="342.80" y="66.00" width="37.60" height="37.60" fill="rgb(245,248,250)" stroke="#dddddd" stroke-width="0.5"/>
<rect x="380.40" y="66.00" width="37.60" height="37.60" fill="rgb(245,248,250)" stroke="#dddddd" stroke-width="0.5"/>
<rect x="42.00" y="103.60" width="37.60" height="37.60" fill="rgb(82,151,201)" stroke="#dddddd" stroke-width="0.5"/>
<rect x="79.60" y="103.60" width="37.60" height="37.60" fill="rgb(233,241,246)" stroke="#dddddd" stroke-width="0.5"/>
<rect x="117.20" y="103.60" width="37.60" height="37.60" fill="rgb(245,248,250)" stroke="#dddddd" stroke-width="0.5"/>
<rect x="154.80" y="103.60" width="37.60" height="37.60" fill="rgb(245,248,250)" stroke="#dddddd" stroke-width="0.5"/>
<rect x="192.40" y="103.60" width="37.60" height="37.60" fill="rgb(245,248,250)" stroke="#dddddd" stroke-width="0.5"/>
<rect x="230.00" y="103.60" width="37.60" height="37.60" fill="rgb(245,248,250)" stroke="#dddddd" stroke-width="0.5"/>
<rect x="267.60" y="103.60" width="37.60" height="37.60" fill="rgb(245,248,250)" stroke="#dddddd" stroke-width="0.5"/>
<rect x="305.20" y="103.60" width="37.60" height="37.60" fill="rgb(245,248,250)" stroke="#dddddd" stroke-width="0.5"/>
<rect x="342.80" y="103.60" width="37.60" height="37.60" fill="rgb(245,248,250)" stroke="#dddddd" stroke-width="0.5"/>
<rect x="380.40" y="103.60" width="37.60" height="37.60" fill="rgb(245,248,250)" stroke="#dddddd" stroke-width="0.5"/>
<rect x="42.00" y="141.20" width="37.60" height="37.60" fill="rgb(82,151,201)" stroke="#dddddd" stroke-width="0.5"/>
<rect x="79.60" y="141.20" width="37.60" height="37.60" fill="rgb(233,241,246)" stroke="#dddddd" stroke-width="0.5"/>
<rect x="117.20" y="141.20" width="37.60" height="37.60" fill="rgb(245,248,250)" stroke="#dddddd" stroke-width="0.5"/>
<rect x="154.80" y="141.20" width="37.60" height="37.60" fill="rgb(245,248,250)" stroke="#dddddd" stroke-width="0.5"/>
<rect x="192.40" y="141.20" width="37.60" height="37.60" fill="rgb(245,248,250)" stroke="#dddddd" stroke-width="0.5"/>
<rect x="230.00" y="141.20" width="37.60" height="37.60" fill="rgb(245,248,250)" stroke="#dddddd" stroke-width="0.5"/>
<rect x="267.60" y="141.20" width="37.60" height="37.60" fill="rgb(245,248,250)" stroke="#dddddd" stroke-width="0.5"/>
<rect x="305.20" y="141.20" width="37.60" height="37.60" fill="rgb(245,248,250)" stroke="#dddddd" stroke-width="0.5"/>
<rect x="342.80" y="141.20" width="37.60" height="37.60" fill="rgb(245,248,250)" stroke="#dddddd" stroke-width="0.5"/>
<rect x="380.40" y="141.20" width="37.60" height="37.60" fill="rgb(245,248,250)" stroke="#dddddd" stroke-width="0.5"/>
<rect x="42.00" y="178.80" width="37.60" height="37.60" fill="rgb(76,148,200)" stroke="#dddddd" stroke-width="0.5"/>
<rect x="79.60" y="178.80" width="37.60" height="37.60" fill="rgb(233,241,246)" stroke="#dddddd" stroke-width="0.5"/>
<rect x="117.20" y="178.80" width="37.60" height="37.60" fill="rgb(245,248,250)" stroke="#dddddd" stroke-width="0.5"/>
<rect x="154.80" y="178.80" width="37.60" height="37.60" fill="rgb(245,248,250)" stroke="#dddddd" stroke-width="0.5"/>
<rect x="192.40" y="178.80" width="37.60" height="37.60" fill="rgb(245,248,250)" stroke="#dddddd" stroke-width="0.5"/>
<rect x="230.00" y="178.80" width="37.60" height="37.60" fill="rgb(245,248,250)" stroke="#dddddd" stroke-width="0.5"/>
<rect x="267.60" y="178.80" width="37.60" height="37.60" fill="rgb(245,248,250)" stroke="#dddddd" stroke-width="0.5"/>
<rect x="305.20" y="178.80" width="37.60" height="37.60" fill="rgb(245,248,250)" stroke="#dddddd" stroke-width="0.5"/>
<rect x="342.80" y="178.80" width="37.60" height="37.60" fill="rgb(245,248,250)" stroke="#dddddd" stroke-width="0.5"/>
<rect x="380.40" y="178.80" width="37.60" height="37.60" fill="rgb(245,248,250)" stroke="#dddddd" stroke-width="0.5"/>
<rect x="42.00" y="216.40" width="37.60" height="37.60" fill="rgb(76,148,200)" stroke="#dddddd" stroke-width="0.5"/>
<rect x="79.60" y="216.40" width="37.60" height="37.60" fill="rgb(76,148,200)" stroke="#dddddd" stroke-width="0.5"/>
<rect x="117.20" y="216.40" width="37.60" height="37.60" fill="rgb(71,144,198)" stroke="#dddddd" stroke-width="0.5"/>
<rect x="154.80" y="216.40" width="37.60" height="37.60" fill="rgb(245,248,250)" stroke="#dddddd" stroke-width="0.5"/>
<rect x="192.40" y="216.40" width="37.60" height="37.60" fill="rgb(239,244,248)" stroke="#dddddd" stroke-width="0.5"/>
<rect x="230.00" y="216.40" width="37.60" height="37.60" fill="rgb(245,248,250)" stroke="#dddddd" stroke-width="0.5"/>
<rect x="267.60" y="216.40" width="37.60" height="37.60" fill="rgb(245,248,250)" stroke="#dddddd" stroke-width="0.5"/>
<rect x="305.20" y="216.40" width="37.60" height="37.60" fill="rgb(245,248,250)" stroke="#dddddd" stroke-width="0.5"/>
<rect x="342.80" y="216.40" width="37.60" height="37.60" fill="rgb(245,248,250)" stroke="#dddddd" stroke-width="0.5"/>
<rect x="380.40" y="216.40" width="37.60" height="37.60" fill="rgb(245,248,250)" stroke="#dddddd" stroke-width="0.5"/>
<rect x="42.00" y="254.00" width="37.60" height="37.60" fill="rgb(245,248,250)" stroke="#dddddd" stroke-width="0.5"/>
<rect x="79.60" y="254.00" width="37.60" height="37.60" fill="rgb(233,241,246)" stroke="#dddddd" stroke-width="0.5"/>
<rect x="117.20" y="254.00" width="37.60" height="37.60" fill="rgb(60,138,195)" stroke="#dddddd" stroke-width="0.5"/>
<rect x="154.80" y="254.00" width="37.60" height="37.60" fill="rgb(82,151,201)" stroke="#dddddd" stroke-width="0.5"/>
<rect x="192.40" y="254.00" width="37.60" height="37.60" fill="rgb(76,148,200)" stroke="#dddddd" stroke-width="0.5"/>
<rect x="230.00" y="254.00" width="37.60" height="37.60" fill="rgb(228,238,245)" stroke="#dddddd" stroke-width="0.5"/>
<rect x="267.60" y="254.00" width="37.60" height="37.60" fill="rgb(245,248,250)" stroke="#dddddd" stroke-width="0.5"/>
<rect x="305.20" y="254.00" width="37.60" height="37.60" fill="rgb(245,248,250)" stroke="#dddddd" stroke-width="0.5"/>
<rect x="342.80" y="254.00" width="37.60" height="37.60" fill="rgb(245,248,250)" stroke="#dddddd" stroke-width="0.5"/>
<rect x="380.40" y="254.00" width="37.60" height="37.60" fill="rgb(245,248,250)" stroke="#dddddd" stroke-width="0.5"/>
<rect x="42.00" y="291.60" width="37.60" height="37.60" fill="rgb(245,248,250)" stroke="#dddddd" stroke-width="0.5"/>
<rect x="79.60" y="291.60" width="37.60" height="37.60" fill="rgb(245,248,250)" stroke="#dddddd" stroke-width="0.5"/>
<rect x="117.20" y="291.60" width="37.60" height="37.60" fill="rgb(239,244,248)" stroke="#dddddd" stroke-width="0.5"/>
<rect x="154.80" y="291.60" width="37.60" height="37.60" fill="rgb(228,238,245)" stroke="#dddddd" stroke-width="0.5"/>
<rect x="192.40" y="291.60" width="37.60" height="37.60" fill="rgb(65,141,196)" stroke="#dddddd" stroke-width="0.5"/>
<rect x="230.00" y="291.60" width="37.60" height="37.60" fill="rgb(60,138,195)" stroke="#dddddd" stroke-width="0.5"/>
<rect x="267.60" y="291.60" width="37.60" height="37.60" fill="rgb(245,248,250)" stroke="#dddddd" stroke-width="0.5"/>
<rect x="305.20" y="291.60" width="37.60" height="37.60" fill="rgb(245,248,250)" stroke="#dddddd" stroke-width="0.5"/>
<rect x="342.80" y="291.60" width="37.60" height="37.60" fill="rgb(245,248,250)" stroke="#dddddd" stroke-width="0.5"/>
<rect x="380.40" y="291.60" width="37.60" height="37.60" fill="rgb(245,248,250)" stroke="#dddddd" stroke-width="0.5"/>
<rect x="42.00" y="329.20" width="37.60" height="37.60" fill="rgb(245,248,250)" stroke="#dddddd" stroke-width="0.5"/>
<rect x="79.60" y="329.20" width="37.60" height="37.60" fill="rgb(245,248,250)" stroke="#dddddd" stroke-width="0.5"/>
<rect x="117.20" y="329.20" width="37.60" height="37.60" fill="rgb(245,248,250)" stroke="#dddddd" stroke-width="0.5"/>
<rect x="154.80" y="329.20" width="37.60" height="37.60" fill="rgb(245,248,250)" stroke="#dddddd" stroke-width="0.5"/>
<rect x="192.40" y="329.20" width="37.60" height="37.60" fill="rgb(245,248,250)" stroke="#dddddd" stroke-width="0.5"/>
<rect x="230.00" y="329.20" width="37.60" height="37.60" fill="rgb(76,148,200)" stroke="#dddddd" stroke-width="0.5"/>
<rect x="267.60" y="329.20" width="37.60" height="37.60" fill="rgb(76,148,200)" stroke="#dddddd" stroke-width="0.5"/>
<rect x="305.20" y="329.20" width="37.60" height="37.60" fill="rgb(76,148,200)" stroke="#dddddd" stroke-width="0.5"/>
<rect x="342.80" y="329.20" width="37.60" height="37.60" fill="rgb(245,248,250)" stroke="#dddddd" stroke-width="0.5"/>
<rect x="380.40" y="329.20" width="37.60" height="37.60" fill="rgb(245,248,250)" stroke="#dddddd" stroke-width="0.5"/>
<rect x="42.00" y="366.80" width="37.60" height="37.60" fill="rgb(245,248,250)" stroke="#dddddd" stroke-width="0.5"/>
<rect x="79.60" y="366.80" width="37.60" height="37.60" fill="rgb(245,248,250)" stroke="#dddddd" stroke-width="0.5"/>
<rect x="117.20" y="366.80" width="37.60" height="37.60" fill="rgb(245,248,250)" stroke="#dddddd" stroke-width="0.5"/>
<rect x="154.80" y="366.80" width="37.60" height="37.60" fill="rgb(245,248,250)" stroke="#dddddd" stroke-width="0.5"/>
<rect x="192.40" y="366.80" width="37.60" height="37.60" fill="rgb(245,248,250)" stroke="#dddddd" stroke-width="0.5"/>
<rect x="230.00" y="366.80" width="37.60" height="37.60" fill="rgb(245,248,250)" stroke="#dddddd" stroke-width="0.5"/>
<rect x="267.60" y="366.80" width="37.60" height="37.60" fill="rgb(245,248,250)" stroke="#dddddd" stroke-width="0.5"/>
<rect x="305.20" y="366.80" width="37.60" height="37.60" fill="rgb(76,148,200)" stroke="#dddddd" stroke-width="0.5"/>
<rect x="342.80" y="366.80" width="37.60" height="37.60" fill="rgb(76,148,200)" stroke="#dddddd" stroke-width="0.5"/>
<rect x="380.40" y="366.80" width="37.60" height="37.60" fill="rgb(245,248,250)" stroke="#dddddd" stroke-width="0.5"/>
<rect x="42.00" y="404.40" width="37.60" height="37.60" fill="rgb(245,248,250)" stroke="#dddddd" stroke-width="0.5"/>
<rect x="79.60" y="404.40" width="37.60" height="37.60" fill="rgb(245,248,250)" stroke="#dddddd" stroke-width="0.5"/>
<rect x="117.20" y="404.40" width="37.60" height="37.60" fill="rgb(245,248,250)" stroke="#dddddd" stroke-width="0.5"/>
<rect x="154.80" y="404.40" width="37.60" height="37.60" fill="rgb(245,248,250)" stroke="#dddddd" stroke-width="0.5"/>
<rect x="192.40" y="404.40" width="37.60" height="37.60" fill="rgb(245,248,250)" stroke="#dddddd" stroke-width="0.5"/>
<rect x="230.00" y="404.40" width="37.60" height="37.60" fill="rgb(245,248,250)" stroke="#dddddd" stroke-width="0.5"/>
<rect x="267.60" y="404.40" width="37.60" height="37.60" fill="rgb(245,248,250)" stroke="#dddddd" stroke-width="0.5"/>
<rect x="305.20" y="404.40" width="37.60" height="37.60" fill="rgb(245,248,250)" stroke="#dddddd" stroke-width="0.5"/>
<rect x="342.80" y="404.40" width="37.60" height="37.60" fill="rgb(71,144,198)" stroke="#dddddd" stroke-width="0.5"/>
<rect x="380.40" y="404.40" width="37.60" height="37.60" fill="rgb(76,148,200)" stroke="#dddddd" stroke-width="0.5"/>
</svg>