<svg xmlns="http://www.w3.org/2000/svg" width="920" height="680" viewBox="0 0 920 680">
<rect width="100%" height="100%" fill="#ffffff"/>
<text x="460" y="28" text-anchor="middle" font-family="Arial" font-size="20" font-weight="700">Distractor Action Experiment</text>
<text x="265.0" y="52" text-anchor="middle" font-family="Arial" font-size="15" font-weight="700">Reward</text>
<line x1="70" y1="320" x2="460" y2="320" stroke="#222"/>
<line x1="70" y1="70" x2="70" y2="320" stroke="#222"/>
<text x="265.0" y="358" text-anchor="middle" font-family="Arial" font-size="12">Distractor count</text>
<polyline points="70.00,95.42 148.00,95.42 265.00,95.42 460.00,95.42" fill="none" stroke="#245c9c" stroke-width="2.5"/>
<line x1="70.00" y1="95.42" x2="70.00" y2="95.42" stroke="#333"/>
<circle cx="70.00" cy="95.42" r="4.5" fill="#245c9c"/>
<text x="70.00" y="338" text-anchor="middle" font-family="Arial" font-size="11">0</text>
<line x1="148.00" y1="95.42" x2="148.00" y2="95.42" stroke="#333"/>
<circle cx="148.00" cy="95.42" r="4.5" fill="#245c9c"/>
<text x="148.00" y="338" text-anchor="middle" font-family="Arial" font-size="11">2</text>
<line x1="265.00" y1="95.42" x2="265.00" y2="95.42" stroke="#333"/>
<circle cx="265.00" cy="95.42" r="4.5" fill="#245c9c"/>
<text x="265.00" y="338" text-anchor="middle" font-family="Arial" font-size="11">5</text>
<line x1="460.00" y1="95.42" x2="460.00" y2="95.42" stroke="#333"/>
<circle cx="460.00" cy="95.42" r="4.5" fill="#245c9c"/>
<text x="460.00" y="338" text-anchor="middle" font-family="Arial" font-size="11">10</text>
<text x="715.0" y="52" text-anchor="middle" font-family="Arial" font-size="15" font-weight="700">Goal rate</text>
<line x1="520" y1="320" x2="910" y2="320" stroke="#222"/>
<line x1="520" y1="70" x2="520" y2="320" stroke="#222"/>
<text x="715.0" y="358" text-anchor="middle" font-family="Arial" font-size="12">Distractor count</text>
<polyline points="520.00,90.83 598.00,90.83 715.00,90.83 910.00,90.83" fill="none" stroke="#245c9c" stroke-width="2.5"/>
<line x1="520.00" y1="90.83" x2="520.00" y2="90.83" stroke="#333"/>
<circle cx="520.00" cy="90.83" r="4.5" fill="#245c9c"/>
<text x="520.00" y="338" text-anchor="middle" font-family="Arial" font-size="11">0</text>
<line x1="598.00" y1="90.83" x2="598.00" y2="90.83" stroke="#333"/>
<circle cx="598.00" cy="90.83" r="4.5" fill="#245c9c"/>
<text x="598.00" y="338" text-anchor="middle" font-family="Arial" font-size="11">2</text>
<line x1="715.00" y1="90.83" x2="715.00" y2="90.83" stroke="#333"/>
<circle cx="715.00" cy="90.83" r="4.5" fill="#245c9c"/>
<text x="715.00" y="338" text-anchor="middle" font-family="Arial" font-size="11">5</text>
<line x1="910.00" y1="90.83" x2="910.00" y2="90.83" stroke="#333"/>
<circle cx="910.00" cy="90.83" r="4.5" fill="#245c9c"/>
<text x="910.00" y="338" text-anchor="middle" font-family="Arial" font-size="11">10</text>
<text x="265.0" y="362" text-anchor="middle" font-family="Arial" font-size="15" font-weight="700">CDS</text>
<line x1="70" y1="630" x2="460" y2="630" stroke="#222"/>
<line x1="70" y1="380" x2="70" y2="630" stroke="#222"/>
<text x="265.0" y="668" text-anchor="middle" font-family="Arial" font-size="12">Distractor count</text>
<polyline points="70.00,609.17 148.00,470.28 265.00,435.56 460.00,419.77" fill="none" stroke="#245c9c" stroke-width="2.5"/>
<line x1="70.00" y1="609.17" x2="70.00" y2="609.17" stroke="#333"/>
<circle cx="70.00" cy="609.17" r="4.5" fill="#245c9c"/>
<text x="70.00" y="648" text-anchor="middle" font-family="Arial" font-size="11">0</text>
<line x1="148.00" y1="470.28" x2="148.00" y2="470.28" stroke="#333"/>
<circle cx="148.00" cy="470.28" r="4.5" fill="#245c9c"/>
<text x="148.00" y="648" text-anchor="middle" font-family="Arial" font-size="11">2</text>
<line x1="265.00" y1="435.56" x2="265.00" y2="435.56" stroke="#333"/>
<circle cx="265.00" cy="435.56" r="4.5" fill="#245c9c"/>
<text x="265.00" y="648" text-anchor="middle" font-family="Arial" font-size="11">5</text>
<line x1="460.00" y1="419.77" x2="460.00" y2="419.77" stroke="#333"/>
<circle cx="460.00" cy="419.77" r="4.5" fill="#245c9c"/>
<text x="460.00" y="648" text-anchor="middle" font-family="Arial" font-size="11">10</text>
<text x="715.0" y="362" text-anchor="middle" font-family="Arial" font-size="15" font-weight="700">SPI</text>
<line x1="520" y1="630" x2="910" y2="630" stroke="#222"/>
<line x1="520" y1="380" x2="520" y2="630" stroke="#222"/>
<text x="715.0" y="668" text-anchor="middle" font-family="Arial" font-size="12">Distractor count</text>
<polyline points="520.00,609.17 598.00,471.82 715.00,435.56 910.00,415.42" fill="none" stroke="#245c9c" stroke-width="2.5"/>
<line x1="520.00" y1="609.17" x2="520.00" y2="609.17" stroke="#333"/>
<circle cx="520.00" cy="609.17" r="4.5" fill="#245c9c"/>
<text x="520.00" y="648" text-anchor="middle" font-family="Arial" font-size="11">0</text>
<line x1="598.00" y1="479.16" x2="598.00" y2="464.48" stroke="#333"/>
<circle cx="598.00" cy="471.82" r="4.5" fill="#245c9c"/>
<text x="598.00" y="648" text-anchor="middle" font-family="Arial" font-size="11">2</text>
<line x1="715.00" y1="444.60" x2="715.00" y2="426.51" stroke="#333"/>
<circle cx="715.00" cy="435.56" r="4.5" fill="#245c9c"/>
<text x="715.00" y="648" text-anchor="middle" font-family="Arial" font-size="11">5</text>
<line x1="910.00" y1="421.95" x2="910.00" y2="408.88" stroke="#333"/>
<circle cx="910.00" cy="415.42" r="4.5" fill="#245c9c"/>
<text x="910.00" y="648" text-anchor="middle" font-family="Arial" font-size="11">10</text>
</svg>