<svg xmlns="http://www.w3.org/2000/svg" width="720" height="440" viewBox="0 0 720 440">
<rect width="100%" height="100%" fill="#ffffff"/>
<text x="360.0" y="28" text-anchor="middle" font-family="Arial" font-size="18" font-weight="700">CDS by Delay</text>
<line x1="64" y1="376" x2="656" y2="376" stroke="#222"/>
<line x1="64" y1="64" x2="64" y2="376" stroke="#222"/>
<text x="360.0" y="428" text-anchor="middle" font-family="Arial" font-size="13">Reward delay</text>
<text transform="translate(18 220.0) rotate(-90)" text-anchor="middle" font-family="Arial" font-size="13">CDS +/- 95% CI</text>
<polyline points="64.00,338.38 212.00,332.69 360.00,330.65 508.00,320.89 656.00,332.91" fill="none" stroke="#245c9c" stroke-width="2.4"/>
<line x1="64.00" y1="346.34" x2="64.00" y2="330.42" stroke="#333" stroke-width="1.5"/>
<line x1="58.00" y1="346.34" x2="70.00" y2="346.34" stroke="#333" stroke-width="1.5"/>
<line x1="58.00" y1="330.42" x2="70.00" y2="330.42" stroke="#333" stroke-width="1.5"/>
<circle cx="64.00" cy="338.38" r="4.5" fill="#245c9c"/>
<text x="64.00" y="398" text-anchor="middle" font-family="Arial" font-size="11">0</text>
<text x="64.00" y="328.38" text-anchor="middle" font-family="Arial" font-size="11">0.039</text>
<line x1="212.00" y1="342.70" x2="212.00" y2="322.68" stroke="#333" stroke-width="1.5"/>
<line x1="206.00" y1="342.70" x2="218.00" y2="342.70" stroke="#333" stroke-width="1.5"/>
<line x1="206.00" y1="322.68" x2="218.00" y2="322.68" stroke="#333" stroke-width="1.5"/>
<circle cx="212.00" cy="332.69" r="4.5" fill="#245c9c"/>
<text x="212.00" y="398" text-anchor="middle" font-family="Arial" font-size="11">1</text>
<text x="212.00" y="322.69" text-anchor="middle" font-family="Arial" font-size="11">0.061</text>
<line x1="360.00" y1="347.27" x2="360.00" y2="314.04" stroke="#333" stroke-width="1.5"/>
<line x1="354.00" y1="347.27" x2="366.00" y2="347.27" stroke="#333" stroke-width="1.5"/>
<line x1="354.00" y1="314.04" x2="366.00" y2="314.04" stroke="#333" stroke-width="1.5"/>
<circle cx="360.00" cy="330.65" r="4.5" fill="#245c9c"/>
<text x="360.00" y="398" text-anchor="middle" font-family="Arial" font-size="11">3</text>
<text x="360.00" y="320.65" text-anchor="middle" font-family="Arial" font-size="11">0.069</text>
<line x1="508.00" y1="343.87" x2="508.00" y2="297.92" stroke="#333" stroke-width="1.5"/>
<line x1="502.00" y1="343.87" x2="514.00" y2="343.87" stroke="#333" stroke-width="1.5"/>
<line x1="502.00" y1="297.92" x2="514.00" y2="297.92" stroke="#333" stroke-width="1.5"/>
<circle cx="508.00" cy="320.89" r="4.5" fill="#245c9c"/>
<text x="508.00" y="398" text-anchor="middle" font-family="Arial" font-size="11">6</text>
<text x="508.00" y="310.89" text-anchor="middle" font-family="Arial" font-size="11">0.107</text>
<line x1="656.00" y1="350.00" x2="656.00" y2="315.81" stroke="#333" stroke-width="1.5"/>
<line x1="650.00" y1="350.00" x2="662.00" y2="350.00" stroke="#333" stroke-width="1.5"/>
<line x1="650.00" y1="315.81" x2="662.00" y2="315.81" stroke="#333" stroke-width="1.5"/>
<circle cx="656.00" cy="332.91" r="4.5" fill="#245c9c"/>
<text x="656.00" y="398" text-anchor="middle" font-family="Arial" font-size="11">10</text>
<text x="656.00" y="322.91" text-anchor="middle" font-family="Arial" font-size="11">0.060</text>
</svg>