<svg xmlns="http://www.w3.org/2000/svg" width="720" height="440" viewBox="0 0 720 440">
<rect width="100%" height="100%" fill="#ffffff"/>
<text x="360.0" y="28" text-anchor="middle" font-family="Arial" font-size="18" font-weight="700">CDS by Sparsity</text>
<line x1="64" y1="376" x2="656" y2="376" stroke="#222"/>
<line x1="64" y1="64" x2="64" y2="376" stroke="#222"/>
<text x="360.0" y="428" text-anchor="middle" font-family="Arial" font-size="13">Reward sparsity</text>
<text transform="translate(18 220.0) rotate(-90)" text-anchor="middle" font-family="Arial" font-size="13">CDS +/- 95% CI</text>
<polyline points="64.00,339.84 212.00,334.35 360.00,335.45 508.00,332.51 656.00,331.93" fill="none" stroke="#245c9c" stroke-width="2.4"/>
<line x1="64.00" y1="347.84" x2="64.00" y2="331.83" stroke="#333" stroke-width="1.5"/>
<line x1="58.00" y1="347.84" x2="70.00" y2="347.84" stroke="#333" stroke-width="1.5"/>
<line x1="58.00" y1="331.83" x2="70.00" y2="331.83" stroke="#333" stroke-width="1.5"/>
<circle cx="64.00" cy="339.84" r="4.5" fill="#245c9c"/>
<text x="64.00" y="398" text-anchor="middle" font-family="Arial" font-size="11">1.0</text>
<text x="64.00" y="329.84" text-anchor="middle" font-family="Arial" font-size="11">0.039</text>
<line x1="212.00" y1="343.00" x2="212.00" y2="325.70" stroke="#333" stroke-width="1.5"/>
<line x1="206.00" y1="343.00" x2="218.00" y2="343.00" stroke="#333" stroke-width="1.5"/>
<line x1="206.00" y1="325.70" x2="218.00" y2="325.70" stroke="#333" stroke-width="1.5"/>
<circle cx="212.00" cy="334.35" r="4.5" fill="#245c9c"/>
<text x="212.00" y="398" text-anchor="middle" font-family="Arial" font-size="11">0.7</text>
<text x="212.00" y="324.35" text-anchor="middle" font-family="Arial" font-size="11">0.060</text>
<line x1="360.00" y1="343.09" x2="360.00" y2="327.81" stroke="#333" stroke-width="1.5"/>
<line x1="354.00" y1="343.09" x2="366.00" y2="343.09" stroke="#333" stroke-width="1.5"/>
<line x1="354.00" y1="327.81" x2="366.00" y2="327.81" stroke="#333" stroke-width="1.5"/>
<circle cx="360.00" cy="335.45" r="4.5" fill="#245c9c"/>
<text x="360.00" y="398" text-anchor="middle" font-family="Arial" font-size="11">0.5</text>
<text x="360.00" y="325.45" text-anchor="middle" font-family="Arial" font-size="11">0.056</text>
<line x1="508.00" y1="342.78" x2="508.00" y2="322.23" stroke="#333" stroke-width="1.5"/>
<line x1="502.00" y1="342.78" x2="514.00" y2="342.78" stroke="#333" stroke-width="1.5"/>
<line x1="502.00" y1="322.23" x2="514.00" y2="322.23" stroke="#333" stroke-width="1.5"/>
<circle cx="508.00" cy="332.51" r="4.5" fill="#245c9c"/>
<text x="508.00" y="398" text-anchor="middle" font-family="Arial" font-size="11">0.3</text>
<text x="508.00" y="322.51" text-anchor="middle" font-family="Arial" font-size="11">0.067</text>
<line x1="656.00" y1="342.09" x2="656.00" y2="321.77" stroke="#333" stroke-width="1.5"/>
<line x1="650.00" y1="342.09" x2="662.00" y2="342.09" stroke="#333" stroke-width="1.5"/>
<line x1="650.00" y1="321.77" x2="662.00" y2="321.77" stroke="#333" stroke-width="1.5"/>
<circle cx="656.00" cy="331.93" r="4.5" fill="#245c9c"/>
<text x="656.00" y="398" text-anchor="middle" font-family="Arial" font-size="11">0.1</text>
<text x="656.00" y="321.93" text-anchor="middle" font-family="Arial" font-size="11">0.069</text>
</svg>