<svg xmlns="http://www.w3.org/2000/svg" width="820" height="500" viewBox="0 0 820 500">
<rect width="100%" height="100%" fill="#ffffff"/>
<text x="410.0" y="30" text-anchor="middle" font-family="Arial" font-size="18" font-weight="700">Combined Mechanism Linear vs Quadratic</text>
<line x1="70" y1="430" x2="750" y2="430" stroke="#222"/>
<line x1="70" y1="70" x2="70" y2="430" stroke="#222"/>
<text x="410.0" y="484" text-anchor="middle" font-family="Arial" font-size="13">Uncertainty level</text>
<text transform="translate(20 250.0) rotate(-90)" text-anchor="middle" font-family="Arial" font-size="13">Metric value</text>
<text x="70.00" y="452" text-anchor="middle" font-family="Arial" font-size="10">very_low</text>
<text x="249.77" y="452" text-anchor="middle" font-family="Arial" font-size="10">low</text>
<text x="468.62" y="452" text-anchor="middle" font-family="Arial" font-size="10">medium</text>
<text x="645.26" y="452" text-anchor="middle" font-family="Arial" font-size="10">high</text>
<text x="750.00" y="452" text-anchor="middle" font-family="Arial" font-size="10">very_high</text>
<polyline points="70.00,389.89 249.77,386.25 468.62,381.83 645.26,378.25 750.00,376.13" fill="none" stroke="#245c9c" stroke-width="1.8" stroke-dasharray="7 5"/>
<polyline points="70.00,386.54 249.77,388.59 468.62,385.59 645.26,378.77 750.00,372.87" fill="none" stroke="#245c9c" stroke-width="2.4"/>
<polyline points="70.00,388.27 249.77,385.96 468.62,382.39 645.26,388.65 750.00,367.08" fill="none" stroke="#245c9c" stroke-width="1.2" opacity="0.45"/>
<circle cx="70.00" cy="388.27" r="4" fill="#245c9c"/>
<circle cx="249.77" cy="385.96" r="4" fill="#245c9c"/>
<circle cx="468.62" cy="382.39" r="4" fill="#245c9c"/>
<circle cx="645.26" cy="388.65" r="4" fill="#245c9c"/>
<circle cx="750.00" cy="367.08" r="4" fill="#245c9c"/>
<text x="580" y="58" font-family="Arial" font-size="12" fill="#245c9c">CDS observed</text>
<line x1="580" y1="66" x2="612" y2="66" stroke="#245c9c" stroke-width="1.8" stroke-dasharray="7 5"/>
<text x="618" y="70" font-family="Arial" font-size="11" fill="#245c9c">linear</text>
<line x1="670" y1="66" x2="702" y2="66" stroke="#245c9c" stroke-width="2.4"/>
<text x="708" y="70" font-family="Arial" font-size="11" fill="#245c9c">quad</text>
<polyline points="70.00,300.12 249.77,299.80 468.62,299.41 645.26,299.09 750.00,298.91" fill="none" stroke="#d66b2a" stroke-width="1.8" stroke-dasharray="7 5"/>
<polyline points="70.00,312.57 249.77,291.14 468.62,285.44 645.26,297.17 750.00,311.01" fill="none" stroke="#d66b2a" stroke-width="2.4"/>
<polyline points="70.00,310.00 249.77,300.10 468.62,270.02 645.26,312.50 750.00,304.72" fill="none" stroke="#d66b2a" stroke-width="1.2" opacity="0.45"/>
<circle cx="70.00" cy="310.00" r="4" fill="#d66b2a"/>
<circle cx="249.77" cy="300.10" r="4" fill="#d66b2a"/>
<circle cx="468.62" cy="270.02" r="4" fill="#d66b2a"/>
<circle cx="645.26" cy="312.50" r="4" fill="#d66b2a"/>
<circle cx="750.00" cy="304.72" r="4" fill="#d66b2a"/>
<text x="580" y="92" font-family="Arial" font-size="12" fill="#d66b2a">SPI observed</text>
<line x1="580" y1="100" x2="612" y2="100" stroke="#d66b2a" stroke-width="1.8" stroke-dasharray="7 5"/>
<text x="618" y="104" font-family="Arial" font-size="11" fill="#d66b2a">linear</text>
<line x1="670" y1="100" x2="702" y2="100" stroke="#d66b2a" stroke-width="2.4"/>
<text x="708" y="104" font-family="Arial" font-size="11" fill="#d66b2a">quad</text>
</svg>