<svg xmlns="http://www.w3.org/2000/svg" width="720" height="450" viewBox="0 0 720 450">
<rect width="100%" height="100%" fill="#ffffff"/>
<text x="360.0" y="30" text-anchor="middle" font-family="Arial" font-size="18" font-weight="700">Reward Factorial Plot</text>
<line x1="68" y1="382" x2="652" y2="382" stroke="#222"/>
<line x1="68" y1="68" x2="68" y2="382" stroke="#222"/>
<text x="360.0" y="436" text-anchor="middle" font-family="Arial" font-size="13">Reward delay</text>
<text transform="translate(18 225.0) rotate(-90)" text-anchor="middle" font-family="Arial" font-size="13">Reward +/- 95% CI</text>
<text x="214.0" y="406" text-anchor="middle" font-family="Arial" font-size="12">low</text>
<text x="506.0" y="406" text-anchor="middle" font-family="Arial" font-size="12">high</text>
<polyline points="214.00,113.36 506.00,203.59" fill="none" stroke="#245c9c" stroke-width="2.4"/>
<line x1="214.00" y1="113.36" x2="214.00" y2="113.36" stroke="#333" stroke-width="1.4"/>
<circle cx="214.00" cy="113.36" r="5" fill="#245c9c"/>
<line x1="506.00" y1="253.75" x2="506.00" y2="153.43" stroke="#333" stroke-width="1.4"/>
<circle cx="506.00" cy="203.59" r="5" fill="#245c9c"/>
<text x="507" y="58" font-family="Arial" font-size="12" fill="#245c9c">low sparsity</text>
<polyline points="214.00,215.46 506.00,318.68" fill="none" stroke="#d66b2a" stroke-width="2.4"/>
<line x1="214.00" y1="229.04" x2="214.00" y2="201.89" stroke="#333" stroke-width="1.4"/>
<circle cx="214.00" cy="215.46" r="5" fill="#d66b2a"/>
<line x1="506.00" y1="355.83" x2="506.00" y2="281.52" stroke="#333" stroke-width="1.4"/>
<circle cx="506.00" cy="318.68" r="5" fill="#d66b2a"/>
<text x="507" y="78" font-family="Arial" font-size="12" fill="#d66b2a">high sparsity</text>
</svg>